<?xml version="1.0" encoding="UTF-8"?>
<svg width="126px" height="71px" viewBox="0 0 126 71" version="1.1" xmlns="http://www.w3.org/2000/svg" xmlns:xlink="http://www.w3.org/1999/xlink">
    <!-- Generator: Sketch 44.1 (41455) - http://www.bohemiancoding.com/sketch -->
    <title>AS-logo-header-desktop</title>
    <desc>Created with Sketch.</desc>
    <defs>
        <polygon id="path-1" points="-12 83 138 83 138 -12 -12 -12"></polygon>
    </defs>
    <g id="Page-1" stroke="none" stroke-width="1" fill="none" fill-rule="evenodd">
        <g id="AS-logo-header-desktop">
            <path d="M86.4268,5.6915 C86.4268,7.2245 85.1848,8.4665 83.6518,8.4665 C82.1188,8.4665 80.8768,7.2245 80.8768,5.6915 C80.8768,4.1585 82.1188,2.9165 83.6518,2.9165 C85.1848,2.9165 86.4268,4.1585 86.4268,5.6915 Z" id="Fill-1" fill="#007BC4"></path>
            <path d="M99.2739,6.9937 C98.3409,4.9207 94.5069,3.8367 88.3879,4.2217 C88.4809,4.5217 88.5459,4.8337 88.5809,5.1547 C92.5339,5.3437 94.9499,6.3257 95.3399,7.7867 C95.9679,10.1377 91.0239,13.8437 81.9899,17.7817 C81.1679,7.9807 72.9349,0.2987 62.9279,0.3357 C53.2559,0.3707 45.2939,7.6047 44.0949,16.9447 C32.4029,23.1357 25.2439,29.4187 26.9869,33.2977 C28.2809,36.1747 35.3819,37.2197 46.6359,34.7957 C46.4989,34.5527 46.3689,34.2897 46.2649,34.0267 C37.2699,35.3937 31.5169,34.3547 30.9209,32.5037 C30.1589,30.1377 35.4559,26.2847 44.8699,22.2497 L44.8799,22.2417 C47.7249,21.0147 57.9289,16.7727 69.9929,13.6107 C70.1409,13.5717 70.2249,13.7847 70.0869,13.8487 C58.9729,18.9947 51.3239,24.4647 50.0009,28.6467 C48.2939,34.0387 55.3859,38.4837 63.0669,38.4557 C72.1059,38.4227 79.6509,32.1037 81.5799,23.6547 C93.6179,17.3647 101.0459,10.9367 99.2739,6.9937" id="Fill-3" fill="#007BC4"></path>
            <path d="M33.1231,68.1532 C33.1231,69.0012 32.3521,69.5792 31.3241,69.5792 C30.7141,69.5792 30.0131,69.3082 30.0131,68.5642 C30.0131,67.8642 30.6311,67.4982 31.5681,67.4982 C32.1721,67.4982 32.7251,67.6132 33.1231,67.7682 L33.1231,68.1532 Z M31.6451,63.7202 C30.5401,63.7202 29.8081,63.9512 29.0621,64.2852 L29.4871,65.5322 C30.1031,65.2752 30.6691,65.1082 31.4271,65.1082 C32.5061,65.1082 33.0971,65.6222 33.0971,66.5602 L33.0971,66.6882 C32.5701,66.5212 32.0441,66.4052 31.2221,66.4052 C29.7411,66.4052 28.4721,67.0462 28.4721,68.6412 C28.4721,70.0372 29.6221,70.7482 30.8871,70.7482 C31.9151,70.7482 32.6221,70.3252 33.0841,69.7722 L33.0841,70.6072 L34.6261,70.6072 L34.6261,66.5852 C34.6261,64.7742 33.6501,63.7202 31.6451,63.7202 L31.6451,63.7202 Z" id="Fill-5" fill="#1C1C1B"></path>
            <path d="M48.0083,68.1532 C48.0083,69.0012 47.2373,69.5792 46.2093,69.5792 C45.5993,69.5792 44.8983,69.3082 44.8983,68.5642 C44.8983,67.8642 45.5163,67.4982 46.4533,67.4982 C47.0573,67.4982 47.6103,67.6132 48.0083,67.7682 L48.0083,68.1532 Z M46.5303,63.7202 C45.4253,63.7202 44.6933,63.9512 43.9473,64.2852 L44.3723,65.5322 C44.9883,65.2752 45.5533,65.1082 46.3123,65.1082 C47.3913,65.1082 47.9823,65.6222 47.9823,66.5602 L47.9823,66.6882 C47.4553,66.5212 46.9283,66.4052 46.1063,66.4052 C44.6263,66.4052 43.3563,67.0462 43.3563,68.6412 C43.3563,70.0372 44.5063,70.7482 45.7723,70.7482 C46.8003,70.7482 47.5073,70.3252 47.9693,69.7722 L47.9693,70.6072 L49.5113,70.6072 L49.5113,66.5852 C49.5113,64.7742 48.5353,63.7202 46.5303,63.7202 L46.5303,63.7202 Z" id="Fill-7" fill="#1C1C1B"></path>
            <path d="M62.855,66.7396 C62.752,65.7376 62.161,64.9536 61.133,64.9536 C60.182,64.9536 59.514,65.6866 59.373,66.7396 L62.855,66.7396 Z M57.831,67.2276 L57.831,67.2276 C57.831,65.2796 59.198,63.6816 61.146,63.6816 C63.305,63.6816 64.397,65.3776 64.397,67.3306 C64.397,67.4716 64.384,67.6136 64.371,67.7676 L59.385,67.7676 C59.552,68.8726 60.336,69.4896 61.338,69.4896 C62.097,69.4896 62.636,69.2066 63.176,68.6796 L64.088,69.4896 C63.446,70.2606 62.56,70.7616 61.313,70.7616 C59.331,70.7616 57.831,69.3256 57.831,67.2276 L57.831,67.2276 Z" id="Fill-9" fill="#1C1C1B"></path>
            <mask id="mask-2" fill="white">
                <use xlink:href="#path-1"></use>
            </mask>
            <g id="Clip-12"></g>
            <polygon id="Fill-11" fill="#1C1C1B" mask="url(#mask-2)" points="40.75 70.6069 42.305 70.6069 42.305 63.8229 40.75 63.8229"></polygon>
            <path d="M50.791,63.8228 L52.346,63.8228 L52.346,64.8758 C52.783,64.2338 53.413,63.6818 54.466,63.6818 C55.995,63.6818 56.882,64.7088 56.882,66.2898 L56.882,70.6068 L55.327,70.6068 L55.327,66.7528 C55.327,65.6988 54.8,65.0948 53.875,65.0948 C52.976,65.0948 52.346,65.7248 52.346,66.7778 L52.346,70.6068 L50.791,70.6068 L50.791,63.8228 Z" id="Fill-13" fill="#1C1C1B" mask="url(#mask-2)"></path>
            <path d="M37.4785,65.3519 L37.4785,63.8229 L35.9235,63.8229 L35.9235,70.6069 L37.4785,70.6069 L37.4785,68.0249 C37.4785,66.3459 38.3285,65.3029 39.8815,65.3389 L39.8815,63.6949 C38.6865,63.6429 37.9025,64.3369 37.4785,65.3519" id="Fill-14" fill="#1C1C1B" mask="url(#mask-2)"></path>
            <path d="M68.6333,66.9823 L68.6333,67.7303 L70.6993,67.7303 L70.6993,69.3813 C70.2483,69.7633 69.5243,70.0423 68.7403,70.0423 C67.0863,70.0423 66.0413,68.7893 66.0413,67.2073 C66.0413,65.6803 67.1153,64.3893 68.6333,64.3893 C69.6023,64.3893 70.1903,64.7113 70.7183,65.1713 L71.2173,64.5833 C70.5323,64.0063 69.8183,63.6663 68.6623,63.6663 C66.6063,63.6663 65.2263,65.3473 65.2263,67.2273 C65.2263,69.1853 66.5573,70.7643 68.7113,70.7643 C69.8663,70.7643 70.8263,70.2813 71.4623,69.7133 L71.4623,66.9823 L68.6333,66.9823 Z" id="Fill-15" fill="#1C1C1B" mask="url(#mask-2)"></path>
            <path d="M80.2139,70.0411 C78.7039,70.0411 77.5319,68.7961 77.5319,67.2021 C77.5319,65.6031 78.7109,64.3901 80.1879,64.3901 C81.7009,64.3901 82.8699,65.6351 82.8699,67.2281 C82.8699,68.8071 81.7169,70.0411 80.2139,70.0411 M80.2139,63.6661 C78.2399,63.6661 76.7169,65.2341 76.7169,67.2281 C76.7169,69.2031 78.2219,70.7651 80.1879,70.7651 C82.1659,70.7651 83.6849,69.1971 83.6849,67.2021 C83.6849,65.2101 82.1609,63.6661 80.2139,63.6661" id="Fill-16" fill="#1C1C1B" mask="url(#mask-2)"></path>
            <path d="M89.9253,67.7379 C89.9253,69.0589 88.9573,70.0539 87.6743,70.0539 C86.3873,70.0539 85.6193,69.2279 85.6193,67.8419 L85.6193,63.8229 L84.8563,63.8229 L84.8563,67.9599 C84.8563,69.6639 85.9263,70.7649 87.5833,70.7649 C88.6013,70.7649 89.3873,70.3479 89.9253,69.5249 L89.9253,70.6079 L90.6883,70.6079 L90.6883,63.8229 L89.9253,63.8229 L89.9253,67.7379 Z" id="Fill-17" fill="#1C1C1B" mask="url(#mask-2)"></path>
            <path d="M94.8652,67.5531 L93.1712,67.5531 L93.1712,64.5281 L94.9052,64.5281 C96.0112,64.5281 96.7132,65.0561 96.7132,66.0351 C96.7132,66.9361 96.0012,67.5531 94.8652,67.5531 M94.9632,63.8231 L92.4082,63.8231 L92.4082,70.6071 L93.1712,70.6071 L93.1712,68.2581 L94.8362,68.2581 C96.2952,68.2581 97.5282,67.4841 97.5282,66.0061 C97.5282,64.6551 96.5102,63.8231 94.9632,63.8231" id="Fill-18" fill="#1C1C1B" mask="url(#mask-2)"></path>
            <path d="M76.5938,63.7135 C75.8848,63.6945 74.5448,64.0275 73.7648,65.5095 L73.7648,63.8225 L73.0018,63.8225 L73.0018,70.6085 L73.7648,70.6085 L73.7648,67.8165 C73.7648,65.3315 75.4348,64.5065 76.5938,64.5085 L76.5938,63.7135 Z" id="Fill-19" fill="#1C1C1B" mask="url(#mask-2)"></path>
            <path d="M97.5767,53.8099 C97.5767,55.3519 96.1747,56.4029 94.3057,56.4029 C93.1967,56.4029 91.9227,55.9099 91.9227,54.5579 C91.9227,53.2839 93.0447,52.6179 94.7497,52.6179 C95.8477,52.6179 96.8527,52.8289 97.5767,53.1089 L97.5767,53.8099 Z M94.8897,45.7499 C92.8807,45.7499 91.5487,46.1699 90.1937,46.7779 L90.9647,49.0439 C92.0857,48.5769 93.1147,48.2729 94.4927,48.2729 C96.4547,48.2729 97.5297,49.2069 97.5297,50.9129 L97.5297,51.1469 C96.5717,50.8429 95.6147,50.6329 94.1187,50.6329 C91.4287,50.6329 89.1187,51.7969 89.1187,54.6979 C89.1187,57.2349 91.2097,58.5289 93.5117,58.5289 C95.3807,58.5289 96.6647,57.7579 97.5067,56.7529 L97.5067,58.2719 L100.3097,58.2719 L100.3097,50.9599 C100.3097,47.6659 98.5347,45.7499 94.8897,45.7499 L94.8897,45.7499 Z" id="Fill-20" fill="#1C1C1B" mask="url(#mask-2)"></path>
            <path d="M111.6367,54.5572 C110.7487,55.4682 109.7667,56.0992 108.4357,56.0992 C106.2457,56.0992 104.7447,54.3122 104.7447,52.1042 C104.7447,49.9552 106.2157,48.1562 108.2957,48.1562 C109.7207,48.1562 110.6317,48.7872 111.4957,49.6982 L113.2487,47.8062 C112.1037,46.5442 110.6557,45.6792 108.3187,45.6792 C104.6087,45.6792 101.9177,48.6382 101.9177,52.1512 C101.9177,55.6682 104.6067,58.5522 108.2957,58.5522 C110.7017,58.5522 112.1267,57.5942 113.3417,56.2392 L111.6367,54.5572 Z" id="Fill-21" fill="#1C1C1B" mask="url(#mask-2)"></path>
            <path d="M122.8613,51.2398 C122.6743,49.4178 121.5993,47.9928 119.7313,47.9928 C118.0023,47.9928 116.7873,49.3238 116.5293,51.2398 L122.8613,51.2398 Z M113.7263,52.1278 L113.7263,52.1278 C113.7263,48.5848 116.2123,45.6798 119.7543,45.6798 C123.6793,45.6798 125.6643,48.7638 125.6643,52.3148 C125.6643,52.5718 125.6413,52.8288 125.6183,53.1088 L116.5533,53.1088 C116.8573,55.1178 118.2823,56.2398 120.1043,56.2398 C121.4833,56.2398 122.4643,55.7258 123.4453,54.7678 L125.1043,56.2398 C123.9363,57.6408 122.3243,58.5518 120.0583,58.5518 C116.4533,58.5518 113.7263,55.9418 113.7263,52.1278 L113.7263,52.1278 Z" id="Fill-22" fill="#1C1C1B" mask="url(#mask-2)"></path>
            <path d="M72.5327,50.983 C70.9077,50.459 69.7527,50.112 69.7527,49.231 C69.7527,48.496 70.3537,47.969 71.4817,47.969 C72.5097,47.969 73.7707,48.413 74.9627,49.137 L76.0837,47.128 C74.7757,46.264 73.0937,45.726 71.5517,45.726 C69.0967,45.726 67.1587,47.143 67.1587,49.511 C67.1587,51.892 69.1577,52.632 71.0137,53.156 C72.4487,53.595 73.7707,53.91 73.7707,54.908 C73.7707,55.806 72.9987,56.263 71.8557,56.263 C70.5937,56.263 69.1447,55.749 67.8137,54.744 L66.5517,56.66 C68.0947,57.875 70.0327,58.506 71.7847,58.506 C74.3917,58.506 76.3647,57.207 76.3647,54.604 C76.3647,52.361 74.3507,51.55 72.5327,50.983" id="Fill-23" fill="#1C1C1B" mask="url(#mask-2)"></path>
            <path d="M83.8408,52.5352 L80.7428,52.5352 L80.7428,48.3242 L83.7888,48.3242 C85.1298,48.3242 85.9668,49.2182 85.9668,50.4202 C85.9668,51.4662 85.1828,52.5352 83.8408,52.5352 M84.1228,45.9362 L77.9148,45.9362 L77.9148,58.2722 L80.7428,58.2722 L80.7428,54.9222 L83.8618,54.9222 C86.5978,54.9222 88.7938,53.2442 88.7938,50.4202 C88.7938,47.9292 87.0338,45.9362 84.1228,45.9362" id="Fill-24" fill="#1C1C1B" mask="url(#mask-2)"></path>
            <path d="M8.7925,53.8099 C8.7925,55.3519 7.3905,56.4029 5.5215,56.4029 C4.4125,56.4029 3.1385,55.9099 3.1385,54.5579 C3.1385,53.2839 4.2615,52.6179 5.9655,52.6179 C7.0635,52.6179 8.0685,52.8289 8.7925,53.1089 L8.7925,53.8099 Z M6.1055,45.7499 C4.0965,45.7499 2.7655,46.1699 1.4095,46.7779 L2.1815,49.0439 C3.3025,48.5769 4.3305,48.2729 5.7085,48.2729 C7.6715,48.2729 8.7455,49.2069 8.7455,50.9129 L8.7455,51.1469 C7.7875,50.8429 6.8305,50.6329 5.3345,50.6329 C2.6445,50.6329 0.3355,51.7969 0.3355,54.6979 C0.3355,57.2349 2.4255,58.5289 4.7275,58.5289 C6.5965,58.5289 7.8815,57.7579 8.7225,56.7529 L8.7225,58.2719 L11.5255,58.2719 L11.5255,50.9599 C11.5255,47.6659 9.7505,45.7499 6.1055,45.7499 L6.1055,45.7499 Z" id="Fill-25" fill="#1C1C1B" mask="url(#mask-2)"></path>
            <path d="M35.856,53.8099 C35.856,55.3519 34.454,56.4029 32.585,56.4029 C31.476,56.4029 30.202,55.9099 30.202,54.5579 C30.202,53.2839 31.325,52.6179 33.029,52.6179 C34.127,52.6179 35.132,52.8289 35.856,53.1089 L35.856,53.8099 Z M33.169,45.7499 C31.16,45.7499 29.829,46.1699 28.473,46.7779 L29.245,49.0439 C30.366,48.5769 31.394,48.2729 32.773,48.2729 C34.735,48.2729 35.809,49.2069 35.809,50.9129 L35.809,51.1469 C34.851,50.8429 33.894,50.6329 32.398,50.6329 C29.708,50.6329 27.399,51.7969 27.399,54.6979 C27.399,57.2349 29.489,58.5289 31.791,58.5289 C33.66,58.5289 34.945,57.7579 35.786,56.7529 L35.786,58.2719 L38.589,58.2719 L38.589,50.9599 C38.589,47.6659 36.814,45.7499 33.169,45.7499 L33.169,45.7499 Z" id="Fill-26" fill="#1C1C1B" mask="url(#mask-2)"></path>
            <path d="M62.8496,51.2398 C62.6626,49.4178 61.5876,47.9928 59.7196,47.9928 C57.9906,47.9928 56.7756,49.3238 56.5176,51.2398 L62.8496,51.2398 Z M53.7146,52.1278 L53.7146,52.1278 C53.7146,48.5848 56.2006,45.6798 59.7426,45.6798 C63.6676,45.6798 65.6526,48.7638 65.6526,52.3148 C65.6526,52.5718 65.6296,52.8288 65.6066,53.1088 L56.5416,53.1088 C56.8456,55.1178 58.2706,56.2398 60.0926,56.2398 C61.4716,56.2398 62.4526,55.7258 63.4336,54.7678 L65.0926,56.2398 C63.9236,57.6408 62.3116,58.5518 60.0466,58.5518 C56.4416,58.5518 53.7146,55.9418 53.7146,52.1278 L53.7146,52.1278 Z" id="Fill-27" fill="#1C1C1B" mask="url(#mask-2)"></path>
            <polygon id="Fill-28" fill="#1C1C1B" mask="url(#mask-2)" points="22.66 58.2719 25.487 58.2719 25.487 45.9369 22.66 45.9369"></polygon>
            <path d="M40.916,45.9369 L43.743,45.9369 L43.743,47.8519 C44.537,46.6839 45.682,45.6799 47.598,45.6799 C50.378,45.6799 51.99,47.5489 51.99,50.4229 L51.99,58.2719 L49.163,58.2719 L49.163,51.2629 C49.163,49.3479 48.205,48.2499 46.523,48.2499 C44.888,48.2499 43.743,49.3949 43.743,51.3099 L43.743,58.2719 L40.916,58.2719 L40.916,45.9369 Z" id="Fill-29" fill="#1C1C1B" mask="url(#mask-2)"></path>
            <path d="M16.7114,48.7166 L16.7114,45.9366 L13.8844,45.9366 L13.8844,58.2716 L16.7114,58.2716 L16.7114,53.5766 C16.7114,50.5246 18.2554,48.6286 21.0804,48.6936 L21.0804,45.7036 C18.9074,45.6096 17.4824,46.8716 16.7114,48.7166" id="Fill-30" fill="#1C1C1B" mask="url(#mask-2)"></path>
        </g>
    </g>
</svg>