<svg width="88" height="16" viewBox="0 0 88 16" fill="none" xmlns="http://www.w3.org/2000/svg">
<path d="M7.22502 16C2.58205 16 0 13.3689 0 7.98815C0 2.63111 2.55837 0 7.22502 0H11.6071V2.79704H7.22502C4.12181 2.79704 2.79525 4.33778 2.79525 7.98815C2.79525 11.6622 4.1455 13.203 7.22502 13.203H16.4058V16H7.22502Z" fill="white"/>
<path d="M24.4087 0L29.674 13.9738C30.2564 15.5109 31.4446 16 32.9823 16C34.6132 16 35.6849 15.441 36.2673 13.9738L41.8122 0H38.7602L33.7511 12.6463C33.588 13.0189 33.3551 13.1819 32.9823 13.1819C32.6095 13.1819 32.3533 13.0189 32.2135 12.6463L27.4374 0H24.4087Z" fill="white"/>
<path d="M57.8295 3.35371C57.9926 2.98108 58.2489 2.81805 58.6217 2.81805C58.9944 2.81805 59.2507 2.98108 59.3905 3.35371L64.1666 16H67.2186L61.9067 2.0262C61.3475 0.558952 60.2758 0 58.645 0C56.9908 0 55.9191 0.558952 55.3367 2.0262L49.8151 16H52.8438L57.8295 3.35371Z" fill="white"/>
<path d="M75.2215 0V2.7376H79.7935V16H82.5553V2.7376H87.1273V0H75.2215Z" fill="white"/>
</svg>
